<svg width="6" height="6" viewBox="0 0 6 6" fill="none" xmlns="http://www.w3.org/2000/svg">
<g clip-path="url(#clip0_2883_19287)">
<path d="M1.21388 0.622018L3 2.40818L4.78612 0.622018C4.93508 0.473053 5.17113 0.459179 5.34747 0.596942L5.37798 0.624733C5.54067 0.787423 5.54068 1.0512 5.37798 1.21389L3.59183 3L5.37798 4.78611C5.52695 4.93508 5.54082 5.17113 5.40306 5.34747L5.37527 5.37798C5.21258 5.54067 4.9488 5.54067 4.78611 5.37798L3 3.59182L1.21388 5.37798C1.06492 5.52695 0.828872 5.54082 0.652536 5.40306L0.622018 5.37527C0.459328 5.21258 0.459326 4.9488 0.622018 4.78611L2.40818 3L0.622018 1.21389C0.473053 1.06492 0.45918 0.82887 0.596943 0.652534L0.624727 0.622018C0.787417 0.459327 1.05119 0.459327 1.21388 0.622018ZM0.922642 5.29164C0.921532 5.29166 0.920421 5.29167 0.919311 5.29167L0.922642 5.29164ZM0.950299 5.28936L0.941169 5.29052C0.944195 5.29021 0.947253 5.28982 0.950299 5.28936ZM0.888602 5.2894L0.892315 5.28992C0.891056 5.28976 0.88986 5.28959 0.888602 5.2894ZM0.862421 5.28379L0.865676 5.28468C0.864553 5.28438 0.86354 5.2841 0.862421 5.28379ZM0.976747 5.28363L0.965519 5.2865C0.969272 5.28565 0.973022 5.28469 0.976747 5.28363ZM1.00032 5.27532L0.991663 5.27875C0.994549 5.27768 0.997441 5.27654 1.00032 5.27532ZM0.838261 5.27531C0.838758 5.27552 0.839287 5.27574 0.838261 5.27531V5.27531ZM0.813822 5.26303L0.791671 5.24799C0.800922 5.25519 0.810631 5.26149 0.820701 5.26691L0.813822 5.26303ZM1.0247 5.26309L1.018 5.26686C1.0202 5.26568 1.02245 5.26441 1.0247 5.26309ZM5.26691 5.17929L5.26303 5.18617L5.24799 5.20833C5.25518 5.19908 5.2615 5.18936 5.26691 5.17929ZM5.27844 5.15388L5.27532 5.16174C5.27642 5.15912 5.27746 5.15651 5.27844 5.15388ZM5.28642 5.1273L5.28378 5.13757C5.28473 5.13424 5.28562 5.13078 5.28642 5.1273ZM5.29051 5.10268L5.28941 5.1114C5.28983 5.10854 5.2902 5.10562 5.29051 5.10268ZM5.08069 0.916594L3 2.99734L0.919311 0.916594L0.91659 0.91931L2.99734 3L0.91659 5.08069L0.919311 5.08341L3 3.00266L5.08069 5.08341L5.08341 5.08069L3.00266 3L5.08341 0.91931L5.08069 0.916594ZM5.29164 5.07736L5.29166 5.0834C5.29168 5.0814 5.29168 5.07938 5.29164 5.07736ZM5.28937 5.04971L5.29052 5.05883C5.29021 5.05581 5.28982 5.05275 5.28937 5.04971ZM5.28363 5.02325L5.28651 5.03448C5.28566 5.03072 5.2847 5.02697 5.28363 5.02325ZM5.27533 4.99967L5.27875 5.00834C5.27768 5.00546 5.27654 5.00255 5.27533 4.99967ZM5.2631 4.9753L5.26686 4.982C5.26568 4.9798 5.26442 4.97754 5.2631 4.9753ZM0.733141 1.018L0.736281 1.02363C0.735185 1.02174 0.734172 1.01991 0.733141 1.018ZM0.721252 0.991658L0.724049 0.998835C0.723063 0.996445 0.722145 0.994076 0.721252 0.991658ZM0.713495 0.965524L0.715326 0.972939C0.714671 0.970471 0.714058 0.96801 0.713495 0.965524ZM0.709388 0.940337L0.710074 0.946308C0.709815 0.94431 0.70959 0.942341 0.709388 0.940337ZM0.708421 0.913265L0.708332 0.91931C0.708332 0.917282 0.708362 0.915292 0.708421 0.913265ZM0.710596 0.888598L0.710074 0.892312C0.710238 0.891052 0.710409 0.889855 0.710596 0.888598ZM0.716216 0.862427L0.715326 0.865681C0.715624 0.864558 0.715899 0.863546 0.716216 0.862427ZM0.724685 0.838261C0.724254 0.839287 0.724475 0.838758 0.724685 0.838261V0.838261ZM0.736968 0.813825L0.752011 0.791667C0.744817 0.800918 0.738506 0.810637 0.73309 0.820707L0.736968 0.813825ZM1.01791 0.733092L1.0248 0.736965L1.04695 0.752007C1.0377 0.744813 1.02798 0.738508 1.01791 0.733092ZM4.982 0.733137L4.97637 0.736284C4.97826 0.735188 4.98009 0.734168 4.982 0.733137ZM0.820624 0.733137L0.814991 0.736284C0.816883 0.735188 0.818706 0.734168 0.820624 0.733137ZM5.1793 0.733092L5.18618 0.736965L5.20833 0.752007C5.19908 0.744813 5.18937 0.738508 5.1793 0.733092ZM0.846132 0.72156L0.839787 0.724055C0.841887 0.723189 0.84401 0.722355 0.846132 0.72156ZM0.991625 0.721236L1.00036 0.724691C0.997448 0.723463 0.994547 0.722316 0.991625 0.721236ZM5.00834 0.72125L5.00117 0.724055C5.00356 0.723069 5.00592 0.722143 5.00834 0.72125ZM5.15388 0.721564L5.16174 0.724691C5.15912 0.723585 5.15651 0.722547 5.15388 0.721564ZM0.872759 0.713574L0.865676 0.715321C0.868007 0.714702 0.870412 0.71411 0.872759 0.713574ZM0.965507 0.713494L0.976786 0.71638C0.973031 0.715306 0.969276 0.714348 0.965507 0.713494ZM5.03448 0.713497L5.02707 0.715321C5.02954 0.714666 5.032 0.71406 5.03448 0.713497ZM5.12731 0.713588L5.13758 0.716213C5.13425 0.715268 5.13078 0.714383 5.12731 0.713588ZM0.898203 0.709398L0.892315 0.71008C0.89426 0.709827 0.896253 0.709596 0.898203 0.709398ZM0.940304 0.709388L0.950273 0.710635C0.946966 0.710141 0.943641 0.709724 0.940304 0.709388ZM5.05967 0.709391L5.0537 0.71008C5.05569 0.70982 5.05767 0.709593 5.05967 0.709391ZM5.10185 0.709404L5.1114 0.710597C5.10826 0.710131 5.10506 0.70973 5.10185 0.709404ZM5.07465 0.70842L5.08677 0.708421C5.08273 0.708304 5.07869 0.708303 5.07465 0.70842ZM0.913233 0.708421L0.925351 0.70842C0.921312 0.708303 0.917271 0.708304 0.913233 0.708421Z" fill="#FF3F3F"/>
</g>
<defs>
<clipPath id="clip0_2883_19287">
<rect width="6" height="6" fill="white"/>
</clipPath>
</defs>
</svg>
