<svg width="18" height="19" viewBox="0 0 18 19" fill="none" xmlns="http://www.w3.org/2000/svg">
<path fill-rule="evenodd" clip-rule="evenodd" d="M3.42388 2.375C2.77581 2.375 2.25 2.93935 2.25 3.63407V4.3751C2.25 4.88971 2.43539 5.38459 2.76702 5.75682L6.40133 9.83592L6.40292 9.83335C7.10453 10.5915 7.49929 11.6165 7.49929 12.6851V16.3045C7.49929 16.5464 7.73902 16.7008 7.938 16.5867L10.0077 15.3962C10.3201 15.2161 10.5151 14.8662 10.5151 14.4862V12.6757C10.5151 11.613 10.9043 10.5924 11.5995 9.83592L15.2338 5.75682C15.5646 5.38459 15.75 4.88971 15.75 4.3751V3.63407C15.75 2.93935 15.225 2.375 14.5769 2.375H3.42388Z" stroke="#2F3036" stroke-linecap="round" stroke-linejoin="round"/>
</svg>
