<svg width="16" height="16" viewBox="0 0 16 16" fill="none" xmlns="http://www.w3.org/2000/svg">
<path d="M13.3133 6.66667H2.64667V12C2.64667 14 3.31333 14.6667 5.31333 14.6667H10.6467C12.6467 14.6667 13.3133 14 13.3133 12V6.66667Z" stroke="#367CFF" stroke-miterlimit="10" stroke-linecap="round" stroke-linejoin="round"/>
<path d="M14.3334 4.66666V5.33333C14.3334 6.06666 13.98 6.66666 13 6.66666H3.00002C1.98002 6.66666 1.66669 6.06666 1.66669 5.33333V4.66666C1.66669 3.93333 1.98002 3.33333 3.00002 3.33333H13C13.98 3.33333 14.3334 3.93333 14.3334 4.66666Z" stroke="#367CFF" stroke-miterlimit="10" stroke-linecap="round" stroke-linejoin="round"/>
<path d="M7.76 3.33334H4.08C3.85333 3.08667 3.86 2.70667 4.1 2.46667L5.04667 1.52001C5.29333 1.27334 5.7 1.27334 5.94667 1.52001L7.76 3.33334Z" stroke="#367CFF" stroke-miterlimit="10" stroke-linecap="round" stroke-linejoin="round"/>
<path d="M11.9133 3.33334H8.23334L10.0467 1.52001C10.2933 1.27334 10.7 1.27334 10.9467 1.52001L11.8933 2.46667C12.1333 2.70667 12.14 3.08667 11.9133 3.33334Z" stroke="#367CFF" stroke-miterlimit="10" stroke-linecap="round" stroke-linejoin="round"/>
<path d="M5.96002 6.66667V10.0933C5.96002 10.6267 6.54669 10.94 6.99336 10.6533L7.62002 10.24C7.84669 10.0933 8.13336 10.0933 8.35336 10.24L8.94669 10.64C9.38669 10.9333 9.98002 10.62 9.98002 10.0867V6.66667H5.96002Z" stroke="#367CFF" stroke-miterlimit="10" stroke-linecap="round" stroke-linejoin="round"/>
</svg>
