<svg width="24" height="24" viewBox="0 0 24 24" fill="none" xmlns="http://www.w3.org/2000/svg">
<path d="M12.4042 3C17.3672 3 21.4042 7.038 21.4042 12C21.4042 16.962 17.3672 21 12.4042 21C10.3543 21 8.34864 20.2917 6.75769 19.0078C6.32769 18.6608 6.25933 18.0306 6.60633 17.6016C6.95237 17.1718 7.58267 17.1052 8.01258 17.4512C9.26849 18.464 10.7873 19 12.4042 19C16.2632 19 19.4042 15.86 19.4042 12C19.4042 8.14 16.2632 5 12.4042 5C8.57624 5.00007 5.45906 8.09122 5.40906 11.9092H7.06433C7.50815 11.9092 7.73226 12.4437 7.42078 12.7598L4.63855 15.5752C4.44264 15.7731 4.12364 15.7729 3.92762 15.5752L1.14539 12.7598C0.833611 12.4439 1.0562 11.9095 1.50086 11.9092H3.40906C3.45906 6.98822 7.47224 3.00007 12.4042 3ZM12.1112 7.49414C12.6642 7.49414 13.1112 7.94214 13.1112 8.49414V11.9844L15.5721 13.7715C15.8411 13.9675 15.9842 14.2721 15.9843 14.5811C15.9843 14.7851 15.9218 14.99 15.7938 15.167C15.5968 15.4369 15.2932 15.5801 14.9833 15.5801C14.7803 15.5801 14.5744 15.5177 14.3964 15.3887L11.5233 13.3027C11.5054 13.2887 11.4983 13.2669 11.4803 13.2529C11.3984 13.1839 11.3333 13.1017 11.2753 13.0107C11.2553 12.9759 11.2258 12.949 11.2098 12.9131C11.1499 12.7851 11.1112 12.6451 11.1112 12.4941V8.49414C11.1112 7.94217 11.5583 7.49419 12.1112 7.49414Z" fill="#6FA6FF"/>
</svg>
