<svg width="16" height="16" viewBox="0 0 16 16" fill="none" xmlns="http://www.w3.org/2000/svg">
<path d="M5.66665 12.6667H5.33331C2.66665 12.6667 1.33331 12 1.33331 8.66666V5.33333C1.33331 2.66666 2.66665 1.33333 5.33331 1.33333H10.6666C13.3333 1.33333 14.6666 2.66666 14.6666 5.33333V8.66666C14.6666 11.3333 13.3333 12.6667 10.6666 12.6667H10.3333C10.1266 12.6667 9.92665 12.7667 9.79998 12.9333L8.79998 14.2667C8.35998 14.8533 7.63998 14.8533 7.19998 14.2667L6.19998 12.9333C6.09331 12.7867 5.84665 12.6667 5.66665 12.6667Z" stroke="#367CFF" stroke-miterlimit="10" stroke-linecap="round" stroke-linejoin="round"/>
<path d="M4.66669 5.33333H11.3334" stroke="#367CFF" stroke-linecap="round" stroke-linejoin="round"/>
<path d="M4.66669 8.66667H8.66669" stroke="#367CFF" stroke-linecap="round" stroke-linejoin="round"/>
</svg>
