<svg width="24" height="24" viewBox="0 0 24 24" fill="none" xmlns="http://www.w3.org/2000/svg">
<path d="M21.68 16.96L18.55 9.65001C17.49 7.17001 15.54 7.07001 14.23 9.43001L12.34 12.84C11.38 14.57 9.58999 14.72 8.34999 13.17L8.12999 12.89C6.83999 11.27 5.01999 11.47 4.08999 13.32L2.36999 16.77C1.15999 19.17 2.90999 22 5.58999 22H18.35C20.95 22 22.7 19.35 21.68 16.96Z" stroke="black" stroke-width="1.5" stroke-linecap="round" stroke-linejoin="round"/>
<path d="M6.96997 8C8.62682 8 9.96997 6.65685 9.96997 5C9.96997 3.34315 8.62682 2 6.96997 2C5.31312 2 3.96997 3.34315 3.96997 5C3.96997 6.65685 5.31312 8 6.96997 8Z" stroke="black" stroke-width="1.5" stroke-linecap="round" stroke-linejoin="round"/>
</svg>
