<svg width="40" height="40" viewBox="0 0 40 40" fill="none" xmlns="http://www.w3.org/2000/svg">
<path d="M27.8327 31.6331H12.166C11.466 31.6331 10.6827 31.0831 10.4494 30.4164L3.54936 11.1164C2.56602 8.34977 3.71602 7.49977 6.08269 9.19977L12.5827 13.8498C13.666 14.5998 14.8994 14.2164 15.366 12.9998L18.2994 5.18311C19.2327 2.68311 20.7827 2.68311 21.716 5.18311L24.6494 12.9998C25.116 14.2164 26.3494 14.5998 27.416 13.8498L33.516 9.49977C36.116 7.63311 37.366 8.58311 36.2994 11.5998L29.566 30.4498C29.316 31.0831 28.5327 31.6331 27.8327 31.6331Z" stroke="#F08842" stroke-width="1.5" stroke-linecap="round" stroke-linejoin="round"/>
<path d="M10.834 36.6665H29.1673" stroke="#F08842" stroke-width="1.5" stroke-linecap="round" stroke-linejoin="round"/>
<path d="M15.834 23.3335H24.1673" stroke="#F08842" stroke-width="1.5" stroke-linecap="round" stroke-linejoin="round"/>
</svg>
