<svg width="32" height="32" viewBox="0 0 32 32" fill="none" xmlns="http://www.w3.org/2000/svg">
<path d="M27.8791 14.8267C27.8791 21.3467 23.1458 27.4534 16.6792 29.2401C16.2392 29.3601 15.7591 29.3601 15.3191 29.2401C8.85247 27.4534 4.11914 21.3467 4.11914 14.8267V8.97338C4.11914 7.88005 4.94583 6.64005 5.97249 6.22672L13.3991 3.18676C15.0658 2.50676 16.9458 2.50676 18.6125 3.18676L26.0391 6.22672C27.0525 6.64005 27.8925 7.88005 27.8925 8.97338L27.8791 14.8267Z" stroke="#3280FF" stroke-width="1.5" stroke-linecap="round" stroke-linejoin="round"/>
<path d="M16.0007 16.6668C17.4734 16.6668 18.6673 15.4729 18.6673 14.0002C18.6673 12.5274 17.4734 11.3335 16.0007 11.3335C14.5279 11.3335 13.334 12.5274 13.334 14.0002C13.334 15.4729 14.5279 16.6668 16.0007 16.6668Z" stroke="#3280FF" stroke-width="1.5" stroke-miterlimit="10" stroke-linecap="round" stroke-linejoin="round"/>
<path d="M16 16.667V20.667" stroke="#3280FF" stroke-width="1.5" stroke-miterlimit="10" stroke-linecap="round" stroke-linejoin="round"/>
</svg>
