<svg width="36" height="24" viewBox="0 0 36 24" fill="none" xmlns="http://www.w3.org/2000/svg">
<path d="M20.2744 0.806167C20.9875 1.42212 21.3875 2.20164 21.5728 3.13354C21.6391 4.03217 21.5109 4.79471 20.9436 5.50974C20.9116 5.5524 20.8796 5.59505 20.8466 5.63901C20.558 5.97747 20.2028 6.16751 19.8244 6.383C19.1606 6.76605 18.8637 7.10931 18.6513 7.86756C18.6231 7.9883 18.5957 8.10924 18.5704 8.23065C18.6494 8.22724 18.7285 8.22383 18.81 8.22031C19.6565 8.19461 20.3515 8.27314 21.0315 8.84194C21.6651 9.45712 21.8909 10.1218 21.9144 10.9975C21.9144 11.0563 21.9143 11.1151 21.9142 11.1757C21.92 11.5881 21.9809 11.9454 22.238 12.2753C22.5474 12.5124 22.8233 12.6331 23.1959 12.7338C23.2471 12.7479 23.2983 12.762 23.3511 12.7765C23.5205 12.8228 23.6903 12.868 23.8601 12.9133C23.9808 12.946 24.1015 12.9789 24.2222 13.0118C24.479 13.0818 24.7359 13.1511 24.9929 13.2201C25.3946 13.328 25.7959 13.437 26.1972 13.5462C26.9868 13.7609 27.7766 13.9742 28.5666 14.1872C28.7862 14.2465 29.0058 14.3057 29.2254 14.3649C29.2763 14.3786 29.3272 14.3924 29.3796 14.4065C29.8001 14.52 30.2205 14.634 30.6408 14.7482C30.8888 14.8153 31.1369 14.8816 31.385 14.9479C33.0302 15.391 34.388 15.9482 35.3418 17.4792C35.8935 18.499 36.0002 19.5933 35.9966 20.7397C35.9964 20.8937 35.9981 21.0475 35.9999 21.2014C36.0037 22.0322 35.9204 22.7372 35.3494 23.3657C34.9153 23.7945 34.4843 23.9328 33.8928 24C33.2704 23.9704 32.7268 23.6883 32.3062 23.2324C32.1875 23.014 32.0689 22.7956 31.9466 22.5706C18.1345 22.5342 18.1345 22.5342 4.04343 22.4971C3.99597 22.6427 3.9485 22.7883 3.8996 22.9383C3.51755 23.5173 3.05051 23.8227 2.38938 23.9678C1.76367 24.0112 1.23085 23.8584 0.73532 23.4531C0.150375 22.8652 0.0173128 22.2412 0.00408621 21.4282C0.00323013 21.2437 0.00277381 21.0591 0.00268161 20.8746C0.00136058 20.7385 0.00136058 20.7385 1.28698e-05 20.5996C-0.00244996 18.9954 0.348083 17.6151 1.46459 16.4471C2.2625 15.668 3.2029 15.3346 4.25244 15.0528C4.35755 15.024 4.46265 14.9951 4.56774 14.9662C4.79169 14.9047 5.01574 14.8437 5.23989 14.783C5.59332 14.6873 5.94646 14.5905 6.29957 14.4936C7.32989 14.211 8.36088 13.931 9.39224 13.6525C9.84132 13.5312 10.2903 13.4094 10.7391 13.2873C11.0549 13.2015 11.3709 13.1165 11.687 13.0321C11.8829 12.9796 12.0785 12.9265 12.2741 12.8732C12.4069 12.8372 12.5399 12.8021 12.6729 12.767C13.3408 12.5897 13.3408 12.5897 13.8558 12.1421C14.0402 11.754 14.0761 11.4256 14.0756 10.9975C14.0991 10.1218 14.3249 9.45712 14.9586 8.84194C15.7108 8.21276 16.4935 8.19068 17.4197 8.23065C17.4164 8.18164 17.413 8.13263 17.4096 8.08214C17.3788 7.27682 17.6057 6.62061 18.1389 6.02451C18.5287 5.60349 18.9878 5.34072 19.4859 5.07512C19.868 4.82536 20.1202 4.50047 20.2646 4.05851C20.3766 3.47074 20.2088 2.93412 19.9367 2.42113C19.8997 2.3453 19.8626 2.26946 19.8244 2.19133C19.4292 1.71468 18.8844 1.40884 18.2827 1.31806C17.6269 1.26398 17.0555 1.42814 16.5435 1.85753C15.9406 2.42232 15.7646 2.94056 15.6738 3.76436C15.6104 4.0098 15.5301 4.10619 15.3342 4.25959C15.1367 4.31323 14.9586 4.30027 14.7588 4.25959C14.5328 4.11141 14.4831 4.00726 14.4082 3.74482C14.3317 2.77499 14.7558 1.8597 15.3566 1.13422C16.6908 -0.273882 18.7715 -0.356498 20.2744 0.806167ZM15.5904 10.0369C15.5393 10.1008 15.5393 10.1008 15.4873 10.1659C15.2975 10.4554 15.3167 10.7727 15.3027 11.1078C15.2579 11.9541 15.1542 12.6379 14.5687 13.2893C13.8626 13.9028 12.6978 14.0681 11.8162 14.3042C11.7005 14.3354 11.5847 14.3667 11.469 14.3981C11.2249 14.4641 10.9807 14.53 10.7365 14.5956C10.3548 14.6983 9.97327 14.8018 9.59177 14.9053C8.59208 15.1765 7.59236 15.4475 6.59133 15.7134C6.20057 15.8173 5.81007 15.9221 5.41966 16.0272C5.26535 16.0686 5.11091 16.1094 4.95636 16.1498C3.69082 16.4806 2.54708 16.8637 1.78821 18.0224C1.27846 18.9272 1.22492 19.7874 1.22075 20.8057C1.21927 20.8963 1.21778 20.9869 1.21625 21.0803C1.21416 21.5796 1.2295 21.9757 1.45447 22.4235C1.70195 22.6479 1.88592 22.7164 2.21858 22.7223C2.50571 22.6298 2.63034 22.5114 2.82087 22.2764C2.92623 22.061 2.90469 21.8665 2.90795 21.6261C2.90998 21.5227 2.91204 21.4193 2.91413 21.3159C2.91708 21.1536 2.91973 20.9913 2.92165 20.829C2.93188 20.0311 2.94415 19.2425 3.46811 18.5995C3.87804 18.2484 4.37429 18.1485 4.8817 18.0095C4.98323 17.9811 5.08475 17.9526 5.18626 17.924C5.46508 17.8459 5.74419 17.7689 6.02341 17.6923C6.20269 17.643 6.38192 17.5937 6.56114 17.5442C7.41332 17.3094 8.26619 17.0773 9.11922 16.8457C9.69084 16.6905 10.2624 16.5349 10.8339 16.3794C10.9761 16.3407 11.1183 16.3021 11.2604 16.2634C12.1154 16.0309 12.9702 15.7976 13.8244 15.562C13.9703 15.5218 14.1162 15.4816 14.2621 15.4414C14.7867 15.2968 14.7867 15.2968 15.3112 15.1517C15.5401 15.0882 15.769 15.0251 15.998 14.962C16.0954 14.9348 16.0954 14.9348 16.1947 14.907C16.7856 14.7449 17.349 14.6871 17.9591 14.6836C18.0232 14.6821 18.0874 14.6806 18.1535 14.679C19.1621 14.6732 20.1494 14.9898 21.1158 15.2573C21.2369 15.2905 21.3579 15.3237 21.479 15.3569C21.804 15.446 22.1289 15.5355 22.4538 15.6252C22.8644 15.7385 23.2751 15.8514 23.6859 15.9644C23.7553 15.9835 23.8248 16.0026 23.8963 16.0223C23.9662 16.0415 24.0361 16.0608 24.1081 16.0806C24.3223 16.1395 24.5365 16.1985 24.7507 16.2575C25.68 16.5134 26.61 16.766 27.5406 17.0166C27.9478 17.1264 28.3549 17.2367 28.762 17.347C29.0864 17.4349 29.411 17.5224 29.7357 17.6091C30.0402 17.6904 30.3445 17.7727 30.6485 17.8556C30.7596 17.8857 30.8707 17.9155 30.982 17.9448C32.229 18.2747 32.229 18.2747 32.6517 18.7435C32.6898 18.811 32.6898 18.811 32.7287 18.8799C32.7552 18.9244 32.7817 18.9688 32.8091 19.0146C32.9936 19.4556 33.036 19.8547 33.04 20.3303C33.0404 20.3808 33.0409 20.4312 33.0414 20.4833C33.0429 20.6947 33.0438 20.906 33.0419 21.1174C33.0153 21.8303 33.0153 21.8303 33.3007 22.4548C33.4653 22.6177 33.5518 22.6517 33.7805 22.7269C34.1317 22.714 34.3531 22.6179 34.594 22.3546C34.8376 21.9221 34.7646 21.3984 34.7648 20.916C34.7657 20.8265 34.7666 20.737 34.7675 20.6448C34.7695 19.3823 34.5548 18.3968 33.7175 17.4505C32.808 16.609 31.741 16.3528 30.5814 16.0412C30.4331 16.0009 30.2848 15.9605 30.1365 15.92C29.7462 15.8136 29.3557 15.708 28.9652 15.6025C28.5784 15.4979 28.1917 15.3928 27.805 15.2877C27.6915 15.2569 27.6915 15.2569 27.5756 15.2254C26.8273 15.022 26.0791 14.8183 25.331 14.614C25.187 14.5747 25.043 14.5354 24.8989 14.4961C24.4905 14.3846 24.0822 14.2725 23.6742 14.1593C23.5508 14.1252 23.4274 14.0913 23.3039 14.0576C23.1346 14.0114 22.9655 13.9643 22.7964 13.9171C22.748 13.9041 22.6995 13.891 22.6496 13.8776C21.8861 13.6613 21.3812 13.3225 20.9674 12.6303C20.7212 12.0958 20.7033 11.5701 20.6934 10.9909C20.679 10.5697 20.607 10.2583 20.3216 9.93467C20.2806 9.90016 20.2397 9.86566 20.1974 9.83011C20.1568 9.79484 20.1162 9.75958 20.0744 9.72325C19.687 9.45488 19.3231 9.45723 18.8701 9.4561C18.8017 9.45561 18.7334 9.45512 18.6629 9.45461C18.5185 9.45387 18.3741 9.45352 18.2297 9.45355C18.01 9.45323 17.7904 9.45056 17.5707 9.44777C17.43 9.44734 17.2893 9.44704 17.1486 9.44691C17.0835 9.44585 17.0184 9.44479 16.9513 9.4437C16.4128 9.44762 15.9363 9.58894 15.5904 10.0369ZM14.9119 16.478C14.5335 16.583 14.1545 16.686 13.7755 16.7891C12.8636 17.0375 11.9525 17.2886 11.0416 17.5407C10.2819 17.7509 9.52174 17.9588 8.76106 18.165C8.32988 18.2819 7.89887 18.3994 7.4679 18.5171C7.16976 18.5984 6.87156 18.6795 6.57314 18.7598C6.29293 18.8351 6.01295 18.9114 5.73313 18.9883C5.63009 19.0164 5.52697 19.0442 5.42376 19.0717C5.2822 19.1095 5.14095 19.1485 4.99972 19.1875C4.92051 19.209 4.8413 19.2305 4.75969 19.2526C4.52313 19.3441 4.37013 19.4513 4.18726 19.6291C4.02032 20.1412 4.11535 20.7071 4.11535 21.2469C13.2759 21.2469 22.4365 21.2469 31.8747 21.2469C31.9919 19.9779 31.9919 19.9779 31.659 19.482C31.3102 19.2549 30.919 19.1635 30.5228 19.0581C30.4527 19.039 30.3826 19.0199 30.3103 19.0003C30.0777 18.9371 29.845 18.8746 29.6122 18.8121C29.4478 18.7676 29.2835 18.7231 29.1192 18.6785C28.6809 18.5597 28.2424 18.4414 27.8039 18.3233C27.3535 18.2019 26.9033 18.0799 26.453 17.958C25.92 17.8137 25.387 17.6694 24.8539 17.5253C23.9008 17.2677 22.948 17.0092 21.9959 16.7476C21.9471 16.7342 21.8983 16.7208 21.8481 16.707C21.46 16.6004 21.072 16.4935 20.6841 16.3865C20.4661 16.3263 20.248 16.2664 20.03 16.2064C19.9701 16.1898 19.9103 16.1732 19.8486 16.1561C18.0784 15.6697 16.6475 15.9941 14.9119 16.478Z" fill="#367CFF"/>
</svg>
