<svg width="32" height="24" viewBox="0 0 32 24" fill="none" xmlns="http://www.w3.org/2000/svg">
<path d="M2.69612 10.54C2.42545 11.0813 2.21545 11.576 2.06612 12.024C1.91678 12.472 1.84212 12.9153 1.84212 13.354C1.84212 14.2407 2.10812 14.9313 2.64012 15.426C3.18145 15.9113 3.94678 16.154 4.93612 16.154C5.69212 16.154 6.32678 16.014 6.84012 15.734C7.36278 15.454 7.75012 15.0993 8.00212 14.67C8.25412 14.2313 8.38012 13.788 8.38012 13.34C8.38012 12.8827 8.24945 12.1593 7.98812 11.17C7.72678 10.1807 7.46078 9.266 7.19012 8.426L7.89012 7.11L10.7321 6.354C10.8535 6.31667 10.9795 6.298 11.1101 6.298C11.3341 6.298 11.5068 6.368 11.6281 6.508C11.7495 6.648 11.8195 6.83933 11.8381 7.082C11.8475 7.35267 11.8895 8.47733 11.9641 10.456C11.9735 10.7547 11.9828 11.0907 11.9921 11.464C12.0015 11.8373 12.0155 12.2107 12.0341 12.584C12.0528 13.1813 12.0995 13.6247 12.1741 13.914C12.2488 14.2033 12.3935 14.4133 12.6081 14.544C12.8228 14.6747 13.1541 14.74 13.6021 14.74H13.8681C14.2601 14.74 14.6195 14.6327 14.9461 14.418C15.2728 14.2033 15.5481 13.886 15.7721 13.466C16.0988 12.8687 16.3788 12.3927 16.6121 12.038C16.8455 11.674 17.1115 11.3753 17.4101 11.142C17.7088 10.8993 18.0308 10.778 18.3761 10.778C18.8148 10.778 19.1975 10.9273 19.5241 11.226C19.8601 11.5153 20.1168 11.8933 20.2941 12.36C20.4715 12.8173 20.5601 13.2887 20.5601 13.774C20.5601 14.25 20.4715 14.684 20.2941 15.076C20.1261 15.4587 19.8695 15.7433 19.5241 15.93C19.3655 16.0233 19.1648 16.07 18.9221 16.07C18.2688 16.07 17.3261 15.678 16.0941 14.894C15.8141 15.258 15.4828 15.5333 15.1001 15.72C14.7175 15.9067 14.2975 16 13.8401 16H13.5881C12.8788 16 12.3375 15.888 11.9641 15.664C11.5908 15.4307 11.3295 15.0807 11.1801 14.614C11.0308 14.1473 10.9468 13.5127 10.9281 12.71L10.9141 11.604C10.8955 9.66267 10.8488 8.286 10.7741 7.474L8.18412 8.146C8.20278 8.21133 8.22145 8.28133 8.24012 8.356C8.26812 8.43067 8.29612 8.50533 8.32412 8.58C8.63212 9.59733 8.88412 10.4933 9.08012 11.268C9.27612 12.0427 9.37412 12.7333 9.37412 13.34C9.37412 14.0307 9.19212 14.6887 8.82812 15.314C8.47345 15.9393 7.95545 16.4433 7.27412 16.826C6.60212 17.218 5.82278 17.414 4.93612 17.414C4.05878 17.414 3.30745 17.2367 2.68212 16.882C2.06612 16.5367 1.59945 16.07 1.28212 15.482C0.974117 14.894 0.820117 14.2547 0.820117 13.564C0.820117 12.9947 0.908784 12.3927 1.08612 11.758C1.27278 11.1233 1.48745 10.568 1.73012 10.092L2.69612 10.54ZM21.0781 18.24C23.7288 18.072 25.2081 17.33 25.5161 16.014C24.5175 16.014 23.7008 15.9393 23.0661 15.79C22.4315 15.6313 21.9881 15.314 21.7361 14.838C21.5868 14.5487 21.5121 14.2127 21.5121 13.83C21.5121 13.354 21.6241 12.8687 21.8481 12.374C22.0721 11.87 22.3661 11.4593 22.7301 11.142C23.1035 10.8153 23.4908 10.652 23.8921 10.652C24.3961 10.652 24.8395 10.8527 25.2221 11.254C25.6048 11.6553 25.9081 12.1687 26.1321 12.794C26.3655 13.4193 26.5101 14.068 26.5661 14.74H27.1401C28.1855 14.74 28.9415 14.642 29.4081 14.446C29.8748 14.25 30.1081 13.9373 30.1081 13.508C30.0988 13.1347 30.0101 12.696 29.8421 12.192C29.6835 11.6787 29.5248 11.2493 29.3661 10.904L30.3741 10.372C30.5515 10.7547 30.7288 11.2633 30.9061 11.898C31.0928 12.5327 31.1861 13.0787 31.1861 13.536C31.1861 14.3573 30.8595 14.9733 30.2061 15.384C29.5621 15.7947 28.5401 16 27.1401 16H26.5521C26.4028 16.9893 25.8895 17.7687 25.0121 18.338C24.1348 18.9167 22.9448 19.2573 21.4421 19.36L21.0781 18.24ZM25.5441 7.838C26.0295 7.74467 26.5848 7.67 27.2101 7.614C27.8355 7.558 28.4515 7.53 29.0581 7.53C29.4781 7.53 29.8701 7.544 30.2341 7.572L30.0101 8.664C29.6835 8.62667 29.2821 8.608 28.8061 8.608C28.2835 8.608 27.7468 8.636 27.1961 8.692C26.6455 8.73867 26.1601 8.79933 25.7401 8.874L25.5441 7.838ZM5.72012 8.888L5.76212 10.274L4.41812 10.386L4.22212 9.014L5.72012 8.888ZM16.6401 13.872C17.1535 14.1987 17.6108 14.4553 18.0121 14.642C18.4135 14.8193 18.7261 14.908 18.9501 14.908C19.0341 14.908 19.1135 14.8893 19.1881 14.852C19.3468 14.768 19.4681 14.6327 19.5521 14.446C19.6361 14.2593 19.6781 14.0447 19.6781 13.802C19.6781 13.5127 19.6221 13.2233 19.5101 12.934C19.3981 12.6353 19.2395 12.3927 19.0341 12.206C18.8381 12.0193 18.6095 11.926 18.3481 11.926C18.0588 11.926 17.7835 12.0893 17.5221 12.416C17.2608 12.7333 16.9668 13.2187 16.6401 13.872ZM22.6601 14.096C22.8001 14.348 23.1221 14.5207 23.6261 14.614C24.1301 14.7073 24.7648 14.754 25.5301 14.754C25.4555 13.9887 25.2735 13.326 24.9841 12.766C24.7041 12.206 24.3308 11.912 23.8641 11.884C23.6495 11.8747 23.4395 11.9633 23.2341 12.15C23.0381 12.3367 22.8748 12.5747 22.7441 12.864C22.6228 13.1533 22.5621 13.424 22.5621 13.676C22.5621 13.8533 22.5948 13.9933 22.6601 14.096Z" fill="black" fill-opacity="0.32"/>
</svg>
