<svg width="16" height="16" viewBox="0 0 16 16" fill="none" xmlns="http://www.w3.org/2000/svg">
<path d="M6.33331 9.16667C6.33331 9.81333 6.83332 10.3333 7.44666 10.3333H8.69997C9.2333 10.3333 9.66665 9.88 9.66665 9.31333C9.66665 8.70667 9.39999 8.48667 9.00665 8.34667L6.99998 7.64667C6.60665 7.50667 6.33999 7.29334 6.33999 6.68C6.33999 6.12 6.77331 5.66 7.30664 5.66H8.55998C9.17331 5.66 9.67332 6.18 9.67332 6.82667" stroke="#367CFF" stroke-linecap="round" stroke-linejoin="round"/>
<path d="M8 5V11" stroke="#367CFF" stroke-linecap="round" stroke-linejoin="round"/>
<path d="M14.6666 8C14.6666 11.68 11.68 14.6667 7.99998 14.6667C4.31998 14.6667 1.33331 11.68 1.33331 8C1.33331 4.32 4.31998 1.33333 7.99998 1.33333" stroke="#367CFF" stroke-linecap="round" stroke-linejoin="round"/>
<path d="M11.3333 2V4.66667H14" stroke="#367CFF" stroke-linecap="round" stroke-linejoin="round"/>
<path d="M14.6666 1.33333L11.3333 4.66666" stroke="#367CFF" stroke-linecap="round" stroke-linejoin="round"/>
</svg>
