<svg width="20" height="20" viewBox="0 0 20 20" fill="none" xmlns="http://www.w3.org/2000/svg">
<path d="M19.5599 8.74006L18.1999 7.16006C17.9399 6.86006 17.7299 6.30006 17.7299 5.90006V4.20006C17.7299 3.14006 16.8599 2.27006 15.7999 2.27006H14.0999C13.7099 2.27006 13.1399 2.06006 12.8399 1.80006L11.2599 0.440059C10.5699 -0.149941 9.43988 -0.149941 8.73988 0.440059L7.16988 1.81006C6.86988 2.06006 6.29988 2.27006 5.90988 2.27006H4.17988C3.11988 2.27006 2.24988 3.14006 2.24988 4.20006V5.91006C2.24988 6.30006 2.03988 6.86006 1.78988 7.16006L0.439883 8.75006C-0.140117 9.44006 -0.140117 10.5601 0.439883 11.2501L1.78988 12.8401C2.03988 13.1401 2.24988 13.7001 2.24988 14.0901V15.8001C2.24988 16.8601 3.11988 17.7301 4.17988 17.7301H5.90988C6.29988 17.7301 6.86988 17.9401 7.16988 18.2001L8.74988 19.5601C9.43988 20.1501 10.5699 20.1501 11.2699 19.5601L12.8499 18.2001C13.1499 17.9401 13.7099 17.7301 14.1099 17.7301H15.8099C16.8699 17.7301 17.7399 16.8601 17.7399 15.8001V14.1001C17.7399 13.7101 17.9499 13.1401 18.2099 12.8401L19.5699 11.2601C20.1499 10.5701 20.1499 9.43006 19.5599 8.74006ZM14.1599 8.11006L9.32988 12.9401C9.18988 13.0801 8.99988 13.1601 8.79988 13.1601C8.59988 13.1601 8.40988 13.0801 8.26988 12.9401L5.84988 10.5201C5.55988 10.2301 5.55988 9.75006 5.84988 9.46006C6.13988 9.17006 6.61988 9.17006 6.90988 9.46006L8.79988 11.3501L13.0999 7.05006C13.3899 6.76006 13.8699 6.76006 14.1599 7.05006C14.4499 7.34006 14.4499 7.82006 14.1599 8.11006Z" fill="#19CE2E"/>
</svg>
