<svg width="20" height="20" viewBox="0 0 20 20" fill="none" xmlns="http://www.w3.org/2000/svg">
<path d="M19.5599 8.74217L18.2095 7.15861C17.9595 6.85793 17.7494 6.29667 17.7494 5.89577V4.19193C17.7494 3.12954 16.8792 2.25758 15.8189 2.25758H14.1185C13.7184 2.25758 13.1483 2.04711 12.8482 1.79654L11.2678 0.443498C10.5776 -0.147833 9.44735 -0.147833 8.75718 0.443498L7.15678 1.79654C6.8567 2.04711 6.29656 2.25758 5.89647 2.25758H4.16604C3.10577 2.25758 2.23556 3.12954 2.23556 4.19193V5.89577C2.23556 6.28664 2.03551 6.84791 1.78544 7.14858L0.435108 8.74217C-0.145036 9.44375 -0.145036 10.5663 0.435108 11.2478L1.78544 12.8414C2.03551 13.132 2.23556 13.7033 2.23556 14.0942V15.8081C2.23556 16.8705 3.10577 17.7424 4.16604 17.7424H5.90647C6.29656 17.7424 6.86671 17.9529 7.16678 18.2035L8.74717 19.5565C9.43734 20.1478 10.5676 20.1478 11.2578 19.5565L12.8382 18.2035C13.1383 17.9529 13.6984 17.7424 14.0985 17.7424H15.7989C16.8592 17.7424 17.7294 16.8705 17.7294 15.8081V14.1042C17.7294 13.7033 17.9395 13.1421 18.1895 12.8414L19.5399 11.2578C20.15 10.5763 20.15 9.44375 19.5599 8.74217ZM9.2473 6.12628C9.2473 5.71536 9.58738 5.37459 9.99748 5.37459C10.4076 5.37459 10.7477 5.71536 10.7477 6.12628V10.9672C10.7477 11.3781 10.4076 11.7189 9.99748 11.7189C9.58738 11.7189 9.2473 11.3781 9.2473 10.9672V6.12628ZM9.99748 14.886C9.44735 14.886 8.99724 14.435 8.99724 13.8837C8.99724 13.3325 9.43734 12.8815 9.99748 12.8815C10.5476 12.8815 10.9977 13.3325 10.9977 13.8837C10.9977 14.435 10.5576 14.886 9.99748 14.886Z" fill="#F08842"/>
</svg>
