<svg width="100" height="100" viewBox="0 0 100 100" fill="none" xmlns="http://www.w3.org/2000/svg">
<path d="M16.7502 24.8749C11.4585 31.8749 8.3335 40.5833 8.3335 49.9999C8.3335 72.9999 27.0002 91.6666 50.0002 91.6666C73.0002 91.6666 91.6668 72.9999 91.6668 49.9999C91.6668 26.9999 73.0002 8.33325 50.0002 8.33325" stroke="#049201" stroke-width="1.5" stroke-linecap="round" stroke-linejoin="round"/>
<path d="M20.8335 49.9999C20.8335 66.1249 33.8752 79.1666 50.0002 79.1666C66.1252 79.1666 79.1668 66.1249 79.1668 49.9999C79.1668 33.8749 66.1252 20.8333 50.0002 20.8333" stroke="#049201" stroke-width="1.5" stroke-linecap="round" stroke-linejoin="round"/>
<path d="M50 66.6666C59.2083 66.6666 66.6667 59.2083 66.6667 49.9999C66.6667 40.7916 59.2083 33.3333 50 33.3333" stroke="#049201" stroke-width="1.5" stroke-linecap="round" stroke-linejoin="round"/>
</svg>
