<svg width="60" height="60" viewBox="0 0 60 60" fill="none" xmlns="http://www.w3.org/2000/svg">
<path d="M10.05 14.925C6.875 19.125 5 24.35 5 30C5 43.8 16.2 55 30 55C43.8 55 55 43.8 55 30C55 16.2 43.8 5 30 5" stroke="#71727A" stroke-width="1.5" stroke-linecap="round" stroke-linejoin="round"/>
<path d="M12.5 30C12.5 39.675 20.325 47.5 30 47.5C39.675 47.5 47.5 39.675 47.5 30C47.5 20.325 39.675 12.5 30 12.5" stroke="#71727A" stroke-width="1.5" stroke-linecap="round" stroke-linejoin="round"/>
<path d="M30 40C35.525 40 40 35.525 40 30C40 24.475 35.525 20 30 20" stroke="#71727A" stroke-width="1.5" stroke-linecap="round" stroke-linejoin="round"/>
</svg>
