<svg width="100" height="100" viewBox="0 0 100 100" fill="none" xmlns="http://www.w3.org/2000/svg">
<path d="M77.6251 29.7918C77.7918 32.3334 77.5835 35.2084 77.0835 38.4168L74.0418 57.9584C71.4585 74.2501 63.9168 79.7501 47.6251 77.2084L28.0835 74.1251C22.4585 73.2501 18.1251 71.7501 14.9585 69.5001C8.91679 65.2918 7.16679 58.3751 8.83346 47.7084L11.9168 28.1668C14.5001 11.8751 22.0418 6.3751 38.3335 8.91676L57.8751 12.0001C70.9585 14.0418 77.0835 19.3751 77.6251 29.7918Z" stroke="#049201" stroke-width="1.5" stroke-linecap="round" stroke-linejoin="round"/>
<path d="M85.4168 56.1251L79.1668 74.9167C73.9585 90.5834 65.6252 94.7501 49.9585 89.5417L31.1668 83.2917C21.7085 80.1667 16.4585 75.8334 14.9585 69.5001C18.1252 71.7501 22.4585 73.2501 28.0835 74.1251L47.6252 77.2084C63.9168 79.7501 71.4585 74.2501 74.0418 57.9584L77.0835 38.4167C77.5835 35.2084 77.7918 32.3334 77.6252 29.7917C87.5835 35.0834 89.7502 43.0834 85.4168 56.1251Z" stroke="#049201" stroke-width="1.5" stroke-linecap="round" stroke-linejoin="round"/>
<path d="M34.3335 37.4167C38.3376 37.4167 41.5835 34.1708 41.5835 30.1667C41.5835 26.1627 38.3376 22.9167 34.3335 22.9167C30.3294 22.9167 27.0835 26.1627 27.0835 30.1667C27.0835 34.1708 30.3294 37.4167 34.3335 37.4167Z" stroke="#049201" stroke-width="1.5" stroke-linecap="round" stroke-linejoin="round"/>
</svg>
