<svg width="50" height="50" viewBox="0 0 50 50" fill="none" xmlns="http://www.w3.org/2000/svg">
<path d="M25 4.16602C13.5208 4.16602 4.16663 13.5202 4.16663 24.9993C4.16663 36.4785 13.5208 45.8327 25 45.8327C36.4791 45.8327 45.8333 36.4785 45.8333 24.9993C45.8333 13.5202 36.4791 4.16602 25 4.16602ZM34.0625 32.4368C33.7708 32.9368 33.25 33.2077 32.7083 33.2077C32.4375 33.2077 32.1666 33.1452 31.9166 32.9785L25.4583 29.1243C23.8541 28.166 22.6666 26.0618 22.6666 24.2077V15.666C22.6666 14.8118 23.375 14.1035 24.2291 14.1035C25.0833 14.1035 25.7916 14.8118 25.7916 15.666V24.2077C25.7916 24.9577 26.4166 26.0618 27.0625 26.4368L33.5208 30.291C34.2708 30.7285 34.5208 31.6868 34.0625 32.4368Z" fill="#367CFF"/>
</svg>
