<svg width="36" height="36" viewBox="0 0 36 36" fill="none" xmlns="http://www.w3.org/2000/svg">
<path d="M25.0498 28.47H10.9498C10.3198 28.47 9.61481 27.975 9.40481 27.375L3.19481 10.005C2.30981 7.51504 3.34481 6.75004 5.47481 8.28004L11.3248 12.465C12.2998 13.14 13.4098 12.795 13.8298 11.7L16.4698 4.66504C17.3098 2.41504 18.7048 2.41504 19.5448 4.66504L22.1848 11.7C22.6048 12.795 23.7148 13.14 24.6748 12.465L30.1648 8.55004C32.5048 6.87004 33.6298 7.72504 32.6698 10.44L26.6098 27.405C26.3848 27.975 25.6798 28.47 25.0498 28.47Z" stroke="#3280FF" stroke-width="1.5" stroke-linecap="round" stroke-linejoin="round"/>
<path d="M9.75 33H26.25" stroke="#3280FF" stroke-width="1.5" stroke-linecap="round" stroke-linejoin="round"/>
<path d="M14.25 21H21.75" stroke="#3280FF" stroke-width="1.5" stroke-linecap="round" stroke-linejoin="round"/>
</svg>
