<svg width="21" height="21" viewBox="0 0 21 21" fill="none" xmlns="http://www.w3.org/2000/svg">
<path d="M9.742 1.03857H6.003C2.928 1.03857 1 3.21557 1 6.29757V14.6116C1 17.6936 2.919 19.8706 6.003 19.8706H14.827C17.912 19.8706 19.831 17.6936 19.831 14.6116V10.5836" stroke="#049201" stroke-width="1.5" stroke-linecap="round" stroke-linejoin="round"/>
<path fill-rule="evenodd" clip-rule="evenodd" d="M7.07763 9.1705L14.5506 1.6975C15.4816 0.7675 16.9906 0.7675 17.9216 1.6975L19.1386 2.9145C20.0696 3.8455 20.0696 5.3555 19.1386 6.2855L11.6296 13.7945C11.2226 14.2015 10.6706 14.4305 10.0946 14.4305H6.34863L6.44263 10.6505C6.45663 10.0945 6.68363 9.5645 7.07763 9.1705Z" stroke="#049201" stroke-width="1.5" stroke-linecap="round" stroke-linejoin="round"/>
<path d="M13.415 2.85205L17.981 7.41805" stroke="#049201" stroke-width="1.5" stroke-linecap="round" stroke-linejoin="round"/>
</svg>
