<svg width="60" height="60" viewBox="0 0 60 60" fill="none" xmlns="http://www.w3.org/2000/svg">
<path d="M22.5 55H37.5C50 55 55 50 55 37.5V22.5C55 10 50 5 37.5 5H22.5C10 5 5 10 5 22.5V37.5C5 50 10 55 22.5 55Z" stroke="#049201" stroke-width="1.5" stroke-linecap="round" stroke-linejoin="round"/>
<path d="M17.5 20.625C20 23.125 24.075 23.125 26.6 20.625" stroke="#049201" stroke-width="1.5" stroke-miterlimit="10" stroke-linecap="round" stroke-linejoin="round"/>
<path d="M33.4004 20.625C35.9004 23.125 39.9754 23.125 42.5004 20.625" stroke="#049201" stroke-width="1.5" stroke-miterlimit="10" stroke-linecap="round" stroke-linejoin="round"/>
<path d="M21 32.5H39C40.25 32.5 41.25 33.5 41.25 34.75C41.25 40.975 36.225 46 30 46C23.775 46 18.75 40.975 18.75 34.75C18.75 33.5 19.75 32.5 21 32.5Z" stroke="#049201" stroke-width="1.5" stroke-miterlimit="10" stroke-linecap="round" stroke-linejoin="round"/>
</svg>
