<svg width="60" height="60" viewBox="0 0 60 60" fill="none" xmlns="http://www.w3.org/2000/svg">
<path d="M22.5 55H37.5C50 55 55 50 55 37.5V22.5C55 10 50 5 37.5 5H22.5C10 5 5 10 5 22.5V37.5C5 50 10 55 22.5 55Z" stroke="#BD0F0F" stroke-width="1.5" stroke-linecap="round" stroke-linejoin="round"/>
<path d="M17.5 21.875C20 19.375 24.075 19.375 26.6 21.875" stroke="#BD0F0F" stroke-width="1.5" stroke-miterlimit="10" stroke-linecap="round" stroke-linejoin="round"/>
<path d="M33.4004 21.875C35.9004 19.375 39.9754 19.375 42.5004 21.875" stroke="#BD0F0F" stroke-width="1.5" stroke-miterlimit="10" stroke-linecap="round" stroke-linejoin="round"/>
<path d="M21 44.25H39C40.25 44.25 41.25 43.25 41.25 42C41.25 35.775 36.225 30.75 30 30.75C23.775 30.75 18.75 35.775 18.75 42C18.75 43.25 19.75 44.25 21 44.25Z" stroke="#BD0F0F" stroke-width="1.5" stroke-miterlimit="10" stroke-linecap="round" stroke-linejoin="round"/>
</svg>
