<svg width="150" height="150" viewBox="0 0 150 150" fill="none" xmlns="http://www.w3.org/2000/svg">
<path d="M130.375 53.5L87.0629 18.875C80.3754 13.5 69.5629 13.5 62.9379 18.8125L19.6254 53.5C14.7504 57.375 11.6254 65.5625 12.6879 71.6875L21.0004 121.438C22.5004 130.313 31.0004 137.5 40.0004 137.5H110C118.938 137.5 127.5 130.25 129 121.438L137.313 71.6875C138.313 65.5625 135.188 57.375 130.375 53.5ZM58.6254 108.625C55.1254 108.625 52.3754 105.813 52.3754 102.375C52.3754 98.9375 55.1879 96.125 58.6254 96.125C62.0629 96.125 64.8754 98.9375 64.8754 102.375C64.8754 105.813 62.0629 108.625 58.6254 108.625ZM77.4379 107C77.3754 107 77.3754 107 77.3129 107C74.7504 107 72.6879 104.938 72.6254 102.438C72.4379 94 66.8754 88.4375 58.4379 88.25C55.8754 88.1875 53.8129 86.0625 53.8754 83.4375C53.9379 80.875 56.0004 78.875 58.5629 78.875C58.6254 78.875 58.6254 78.875 58.6879 78.875C72.1254 79.1875 81.7504 88.75 82.0004 102.188C82.0629 104.813 80.0629 107 77.4379 107ZM96.1254 107C93.5004 107 91.4379 104.938 91.3754 102.375C91.3129 98.25 90.6254 94.3125 89.3754 90.625C86.1879 81.5 79.3754 74.75 70.2504 71.5C66.5629 70.1875 62.6254 69.5 58.5004 69.5C55.9379 69.5 53.8129 67.375 53.8754 64.75C53.8754 62.1875 56.0004 60.125 58.5629 60.125H58.6254C63.8129 60.1875 68.7504 61.0625 73.3754 62.6875C85.1879 66.875 94.0004 75.6875 98.1879 87.5C99.8129 92.125 100.688 97.125 100.75 102.25C100.813 104.875 98.7504 107 96.1254 107Z" fill="url(#paint0_linear_4954_34764)"/>
<defs>
<linearGradient id="paint0_linear_4954_34764" x1="103.5" y1="31.5" x2="25" y2="127" gradientUnits="userSpaceOnUse">
<stop stop-color="#FFDBDB"/>
<stop offset="1" stop-color="#FF7171"/>
</linearGradient>
</defs>
</svg>
