<svg width="60" height="60" viewBox="0 0 60 60" fill="none" xmlns="http://www.w3.org/2000/svg">
<path d="M55 19.525V31.25H44.8C44.5 31.225 43.85 30.85 43.7 30.575L41.1 25.65C40.075 23.7 38.3 22.6 36.4 22.7C34.5 22.8 32.875 24.075 32.05 26.15L28.6 34.8L28.1 33.5C26.875 30.325 23.375 27.925 19.925 27.925L5 28V19.525C5 10.425 10.425 5 19.525 5H40.475C49.575 5 55 10.425 55 19.525Z" fill="#FF6B6B"/>
<path d="M55 40.4746V34.9996H44.8C43.125 34.9996 41.15 33.7996 40.375 32.3246L37.775 27.3996C37.075 26.0746 36.075 26.1496 35.525 27.5246L29.775 42.0496C29.15 43.6746 28.1 43.6746 27.45 42.0496L24.6 34.8496C23.925 33.0996 21.825 31.6746 19.95 31.6746L5 31.7496V40.4746C5 49.4246 10.25 54.8246 19.075 54.9746C19.35 54.9996 19.65 54.9996 19.925 54.9996H39.925C40.3 54.9996 40.675 54.9996 41.025 54.9746C49.8 54.7746 55 49.3996 55 40.4746Z" fill="#FF6B6B"/>
<path d="M5.00078 31.75V40.025C4.95078 39.225 4.92578 38.375 4.92578 37.5V31.75H5.00078Z" fill="#FF6B6B"/>
</svg>
