<svg width="60" height="60" viewBox="0 0 60 60" fill="none" xmlns="http://www.w3.org/2000/svg">
<path d="M49.9248 25H9.9248V45C9.9248 52.5 12.4248 55 19.9248 55H39.9248C47.4248 55 49.9248 52.5 49.9248 45V25Z" stroke="#367CFF" stroke-miterlimit="10" stroke-linecap="round" stroke-linejoin="round"/>
<path d="M53.75 17.5V20C53.75 22.75 52.425 25 48.75 25H11.25C7.425 25 6.25 22.75 6.25 20V17.5C6.25 14.75 7.425 12.5 11.25 12.5H48.75C52.425 12.5 53.75 14.75 53.75 17.5Z" stroke="#367CFF" stroke-miterlimit="10" stroke-linecap="round" stroke-linejoin="round"/>
<path d="M29.1 12.5001H15.2999C14.4499 11.5751 14.475 10.1501 15.375 9.2501L18.925 5.7001C19.85 4.7751 21.375 4.7751 22.3 5.7001L29.1 12.5001Z" stroke="#367CFF" stroke-miterlimit="10" stroke-linecap="round" stroke-linejoin="round"/>
<path d="M44.675 12.5001H30.875L37.675 5.7001C38.6 4.7751 40.125 4.7751 41.05 5.7001L44.6 9.2501C45.5 10.1501 45.525 11.5751 44.675 12.5001Z" stroke="#367CFF" stroke-miterlimit="10" stroke-linecap="round" stroke-linejoin="round"/>
<path d="M22.3501 25V37.85C22.3501 39.85 24.5501 41.025 26.2251 39.95L28.5751 38.4C29.4251 37.85 30.5001 37.85 31.3251 38.4L33.5501 39.9C35.2001 41 37.4251 39.825 37.4251 37.825V25H22.3501Z" stroke="#367CFF" stroke-miterlimit="10" stroke-linecap="round" stroke-linejoin="round"/>
</svg>
