<svg width="502" height="327" viewBox="0 0 502 327" fill="none" xmlns="http://www.w3.org/2000/svg">
<path d="M282.695 11.0392C292.611 19.4152 298.173 30.0154 300.75 42.6877C301.672 54.9076 299.888 65.2769 292 75.0002C291.555 75.5802 291.111 76.1603 290.653 76.758C286.639 81.3605 281.7 83.9448 276.438 86.8752C267.207 92.084 263.079 96.7517 260.125 107.063C259.733 108.705 259.352 110.349 259 112C260.1 111.954 261.199 111.907 262.332 111.86C274.103 111.51 283.767 112.578 293.223 120.313C302.034 128.678 305.173 137.717 305.5 149.625C305.499 150.425 305.498 151.224 305.497 152.048C305.578 157.656 306.425 162.514 310 167C314.303 170.225 318.138 171.867 323.32 173.236C324.032 173.427 324.744 173.618 325.477 173.816C327.834 174.446 330.194 175.061 332.555 175.676C334.234 176.122 335.912 176.569 337.59 177.017C341.161 177.967 344.733 178.911 348.307 179.849C353.892 181.315 359.473 182.798 365.053 184.283C376.032 187.202 387.016 190.103 398 193C401.054 193.805 404.107 194.611 407.16 195.416C407.868 195.603 408.576 195.79 409.306 195.982C415.153 197.525 420.998 199.075 426.843 200.628C430.29 201.54 433.74 202.442 437.191 203.343C460.068 209.37 478.948 216.947 492.211 237.766C499.882 251.633 501.365 266.514 501.316 282.103C501.313 284.196 501.336 286.288 501.362 288.381C501.414 299.678 500.256 309.265 492.317 317.813C486.28 323.643 480.287 325.524 472.063 326.438C463.408 326.035 455.848 322.199 450 316C448.35 313.03 446.7 310.06 445 307C252.94 306.505 252.94 306.505 57.0002 306C56.3402 307.98 55.6802 309.96 55.0002 312C49.6877 319.873 43.1934 324.026 34.0002 326C25.2996 326.59 17.8907 324.513 11.0002 319C2.86638 311.006 1.01613 302.52 0.83221 291.465C0.820306 288.956 0.813961 286.447 0.812679 283.938C0.79431 282.086 0.79431 282.086 0.77557 280.197C0.741323 258.383 5.61556 239.614 21.1408 223.731C32.236 213.136 45.3124 208.602 59.9064 204.77C61.3681 204.378 62.8295 203.986 64.2908 203.593C67.4048 202.757 70.5204 201.927 73.6373 201.102C78.5518 199.801 83.4622 198.484 88.3722 197.166C102.699 193.324 117.035 189.516 131.377 185.728C137.621 184.078 143.864 182.422 150.105 180.762C154.496 179.595 158.89 178.439 163.286 177.292C166.009 176.578 168.73 175.856 171.45 175.131C173.296 174.642 175.146 174.164 176.995 173.687C186.283 171.276 186.283 171.276 193.444 165.189C196.008 159.912 196.507 155.446 196.5 149.625C196.827 137.717 199.967 128.678 208.778 120.313C219.237 111.757 230.121 111.457 243 112C242.954 111.334 242.907 110.667 242.86 109.981C242.431 99.0296 245.587 90.1062 253 82.0002C258.421 76.275 264.805 72.7018 271.731 69.09C277.044 65.6937 280.552 61.2757 282.559 55.2658C284.116 47.273 281.783 39.9759 278 33.0002C277.485 31.9689 276.969 30.9377 276.438 29.8752C270.942 23.3935 263.367 19.2346 255 18.0002C245.881 17.2647 237.936 19.497 230.817 25.3361C222.433 33.0163 219.985 40.0635 218.723 51.2658C217.841 54.6034 216.725 55.9142 214 58.0002C211.254 58.7296 208.778 58.5534 206 58.0002C202.857 55.9852 202.166 54.5688 201.125 51.0002C200.061 37.812 205.958 25.3656 214.313 15.5002C232.864 -3.64769 261.797 -4.77113 282.695 11.0392ZM217.563 136.563C216.853 137.431 216.853 137.431 216.129 138.317C213.49 142.253 213.757 146.568 213.563 151.125C212.939 162.633 211.497 171.932 203.356 180.789C193.537 189.132 177.342 191.38 165.082 194.59C163.473 195.015 161.864 195.441 160.255 195.867C156.86 196.765 153.465 197.66 150.069 198.554C144.761 199.95 139.456 201.356 134.151 202.764C120.25 206.452 106.349 210.138 92.4292 213.754C86.9957 215.166 81.5657 216.591 76.137 218.021C73.9912 218.583 71.8438 219.139 69.6947 219.688C52.097 224.186 36.1931 229.395 25.6408 245.152C18.5526 257.456 17.8081 269.153 17.7502 283C17.7296 284.232 17.7089 285.465 17.6877 286.735C17.6585 293.524 17.8718 298.91 21.0002 305C24.4414 308.052 26.9996 308.983 31.6252 309.063C35.6178 307.806 37.3509 306.195 40.0002 303C41.4652 300.07 41.1658 297.425 41.2111 294.156C41.2392 292.75 41.2679 291.344 41.2971 289.938C41.338 287.731 41.3749 285.524 41.4015 283.317C41.5438 272.467 41.7145 261.743 49.0002 253C54.7004 248.225 61.6008 246.867 68.6564 244.977C70.0683 244.59 71.48 244.202 72.8914 243.814C76.7685 242.751 80.6496 241.705 84.5322 240.663C87.0251 239.993 89.5173 239.322 92.0095 238.65C103.859 235.457 115.719 232.3 127.58 229.151C135.529 227.04 143.476 224.925 151.423 222.81C153.4 222.284 155.377 221.758 157.354 221.233C169.243 218.071 181.129 214.898 193.006 211.695C195.035 211.147 197.064 210.601 199.093 210.054C206.388 208.089 206.388 208.089 213.681 206.115C216.864 205.252 220.047 204.393 223.231 203.535C224.585 203.165 224.585 203.165 225.967 202.788C234.183 200.583 242.016 199.798 250.5 199.75C251.392 199.73 252.284 199.709 253.203 199.688C267.228 199.608 280.957 203.913 294.395 207.551C296.078 208.003 297.762 208.454 299.446 208.905C303.965 210.117 308.483 211.335 313 212.554C318.71 214.094 324.421 215.63 330.132 217.167C331.098 217.426 332.064 217.686 333.059 217.954C334.031 218.215 335.002 218.477 336.003 218.746C338.982 219.548 341.961 220.35 344.94 221.153C357.861 224.632 370.793 228.067 383.733 231.475C389.396 232.968 395.056 234.468 400.717 235.968C405.229 237.163 409.741 238.353 414.257 239.532C418.491 240.638 422.722 241.756 426.95 242.884C428.494 243.293 430.04 243.698 431.586 244.097C448.926 248.582 448.926 248.582 454.805 254.957C455.335 255.876 455.335 255.876 455.875 256.813C456.244 257.417 456.613 258.022 456.992 258.645C459.558 264.641 460.149 270.069 460.203 276.535C460.21 277.222 460.216 277.908 460.223 278.616C460.244 281.491 460.257 284.365 460.23 287.24C459.86 296.933 459.86 296.933 463.828 305.426C466.118 307.641 467.32 308.103 470.5 309.125C475.384 308.951 478.463 307.643 481.813 304.063C485.199 298.181 484.184 291.061 484.188 284.5C484.2 283.283 484.212 282.066 484.225 280.813C484.252 263.644 481.268 250.244 469.625 237.375C456.978 225.932 442.141 222.448 426.016 218.211C423.954 217.662 421.892 217.113 419.83 216.563C414.403 215.116 408.973 213.68 403.542 212.245C398.164 210.824 392.787 209.394 387.41 207.965C385.831 207.545 385.831 207.545 384.22 207.117C373.815 204.351 363.411 201.582 353.009 198.804C351.006 198.269 349.003 197.734 347 197.2C341.321 195.684 335.644 194.16 329.971 192.621C328.255 192.156 326.538 191.695 324.821 191.237C322.467 190.608 320.115 189.969 317.765 189.327C317.091 189.149 316.417 188.972 315.723 188.789C305.107 185.848 298.086 181.241 292.332 171.828C288.909 164.559 288.66 157.412 288.522 149.535C288.322 143.808 287.32 139.573 283.352 135.172C282.782 134.703 282.212 134.234 281.625 133.75C281.061 133.271 280.496 132.791 279.914 132.297C274.528 128.648 269.468 128.68 263.168 128.664C262.218 128.658 261.267 128.651 260.288 128.644C258.28 128.634 256.272 128.629 254.264 128.63C251.208 128.625 248.155 128.589 245.1 128.551C243.143 128.545 241.187 128.541 239.231 128.539C238.325 128.525 237.42 128.51 236.487 128.496C228.999 128.549 222.374 130.471 217.563 136.563ZM208.129 224.151C202.866 225.579 197.596 226.979 192.327 228.382C179.647 231.759 166.977 235.173 154.311 238.602C143.748 241.46 133.177 244.287 122.6 247.091C116.604 248.681 110.611 250.279 104.618 251.879C100.473 252.985 96.3259 254.087 92.1764 255.179C88.28 256.204 84.3868 257.241 80.4958 258.286C79.063 258.669 77.6291 259.047 76.194 259.421C74.2255 259.935 72.2614 260.465 70.2975 260.996C69.1961 261.288 68.0947 261.58 66.9599 261.881C63.6704 263.125 61.5429 264.582 59.0002 267C56.6788 273.964 58.0002 281.659 58.0002 289C185.38 289 312.76 289 444 289C445.629 271.744 445.629 271.744 441 265C436.151 261.912 430.711 260.67 425.202 259.236C424.227 258.976 423.252 258.717 422.247 258.449C419.013 257.59 415.776 256.741 412.539 255.891C410.254 255.286 407.969 254.68 405.684 254.074C399.589 252.458 393.492 250.85 387.394 249.244C381.132 247.593 374.871 245.934 368.611 244.276C361.199 242.314 353.787 240.352 346.375 238.393C333.122 234.89 319.872 231.374 306.633 227.817C305.955 227.634 305.276 227.452 304.578 227.264C299.182 225.815 293.786 224.362 288.392 222.906C285.36 222.088 282.329 221.273 279.297 220.457C278.465 220.231 277.632 220.006 276.775 219.773C252.159 213.159 232.262 217.57 208.129 224.151Z" fill="#367CFF"/>
</svg>
