<svg width="60" height="60" viewBox="0 0 60 60" fill="none" xmlns="http://www.w3.org/2000/svg">
<g clip-path="url(#clip0_5318_50262)">
<path d="M28.1612 10.96C32.7382 11.3421 36.9462 10.2881 38.1663 8.44704L38.7873 7.43899C37.8262 7.09293 36.9012 6.79293 36.1693 6.57297C35.4702 6.36191 35.0003 5.72699 35.0003 4.99093V2.08501C35.0003 0.935982 34.0643 0 32.9153 0H27.0853C25.9353 0 25.0003 0.935982 25.0003 2.08501V4.99104C25.0003 5.7271 24.5303 6.36203 23.8303 6.57308C23.1052 6.79211 22.1893 7.08813 21.2363 7.43008L21.9144 8.59411C22.4142 9.72006 24.9833 10.6931 28.1612 10.96Z" fill="#FF3F3F"/>
<path d="M43.9881 15.2006C44.9082 12.4406 43.6211 9.47854 40.9951 8.31158C40.8932 8.26553 40.7831 8.22463 40.6791 8.18057L39.8521 9.52354C38.2001 12.0146 33.982 13.0346 29.964 13.0346C29.2969 13.0346 28.6369 13.0066 27.9939 12.9526C23.917 12.6106 20.9779 11.3066 20.1118 9.46155L19.3568 8.1665C19.2408 8.21549 19.1199 8.26154 19.0058 8.31147C16.3798 9.47843 15.0928 12.4405 16.0128 15.2005L19.2178 24.8166C20.3329 28.1586 20.3329 31.8417 19.2178 35.1837L18.2988 37.9417C17.9638 38.9487 17.8958 39.9777 18.1028 40.9167C18.5347 42.8758 19.9558 43.9997 22.0008 43.9997H29.0008V47.9997C29.0008 53.5138 24.5147 57.9997 19.0008 57.9997C18.4478 57.9997 18.0008 58.4477 18.0008 58.9997C18.0008 59.5527 18.4478 59.9997 19.0008 59.9997C23.1719 59.9997 26.8489 57.8577 29.0008 54.6186V58.9997C29.0008 59.5527 29.4478 59.9997 30.0008 59.9997C30.5527 59.9997 31.0007 59.5527 31.0007 58.9997V54.6188C33.1517 57.8578 36.8287 59.9999 41.0008 59.9999C41.5527 59.9999 42.0007 59.5529 42.0007 58.9999C42.0007 58.448 41.5527 58 41.0008 58C35.4867 58 31.0007 53.5139 31.0007 47.9999V44H38.0007C40.0458 44 41.4668 42.876 41.8988 40.917C42.1057 39.9779 42.0378 38.9489 41.7018 37.9419L40.7828 35.1839C39.6677 31.8419 39.6677 28.1588 40.7828 24.8168L43.9881 15.2006Z" fill="#FF3F3F"/>
</g>
<defs>
<clipPath id="clip0_5318_50262">
<rect width="60" height="60" fill="white"/>
</clipPath>
</defs>
</svg>
