<svg width="100" height="100" viewBox="0 0 100 100" fill="none" xmlns="http://www.w3.org/2000/svg">
<path d="M35.4163 79.1668H33.333C16.6663 79.1668 8.33301 75.0002 8.33301 54.1668V33.3335C8.33301 16.6668 16.6663 8.3335 33.333 8.3335H66.6663C83.333 8.3335 91.6663 16.6668 91.6663 33.3335V54.1668C91.6663 70.8335 83.333 79.1668 66.6663 79.1668H64.583C63.2913 79.1668 62.0413 79.7918 61.2497 80.8335L54.9997 89.1668C52.2497 92.8335 47.7497 92.8335 44.9997 89.1668L38.7497 80.8335C38.083 79.9168 36.5413 79.1668 35.4163 79.1668Z" stroke="#049201" stroke-width="1.5" stroke-miterlimit="10" stroke-linecap="round" stroke-linejoin="round"/>
<path d="M29.167 33.3335H70.8337" stroke="#049201" stroke-width="1.5" stroke-linecap="round" stroke-linejoin="round"/>
<path d="M29.167 54.1665H54.167" stroke="#049201" stroke-width="1.5" stroke-linecap="round" stroke-linejoin="round"/>
</svg>
