<svg width="32" height="32" viewBox="0 0 32 32" fill="none" xmlns="http://www.w3.org/2000/svg">
<path d="M11.3332 25.3332H10.6665C5.33317 25.3332 2.6665 23.9998 2.6665 17.3332V10.6665C2.6665 5.33317 5.33317 2.6665 10.6665 2.6665H21.3332C26.6665 2.6665 29.3332 5.33317 29.3332 10.6665V17.3332C29.3332 22.6665 26.6665 25.3332 21.3332 25.3332H20.6665C20.2532 25.3332 19.8532 25.5332 19.5998 25.8665L17.5998 28.5332C16.7198 29.7065 15.2798 29.7065 14.3998 28.5332L12.3998 25.8665C12.1865 25.5732 11.6932 25.3332 11.3332 25.3332Z" stroke="#AAAAAA" stroke-width="1.5" stroke-miterlimit="10" stroke-linecap="round" stroke-linejoin="round"/>
<path d="M9.3335 10.6665H22.6668" stroke="#AAAAAA" stroke-width="1.5" stroke-linecap="round" stroke-linejoin="round"/>
<path d="M9.3335 17.3335H17.3335" stroke="#AAAAAA" stroke-width="1.5" stroke-linecap="round" stroke-linejoin="round"/>
</svg>
