<svg width="150" height="150" viewBox="0 0 150 150" fill="none" xmlns="http://www.w3.org/2000/svg">
<path d="M68.8125 12.5C37.75 12.5 12.5 37.75 12.5 68.8125C12.5 99.875 37.75 125.125 68.8125 125.125C99.875 125.125 125.125 99.875 125.125 68.8125C125.125 37.75 99.875 12.5 68.8125 12.5ZM84.375 73.4375H73.4375V84.375C73.4375 86.9375 71.3125 89.0625 68.75 89.0625C66.1875 89.0625 64.0625 86.9375 64.0625 84.375V73.4375H53.125C50.5625 73.4375 48.4375 71.3125 48.4375 68.75C48.4375 66.1875 50.5625 64.0625 53.125 64.0625H64.0625V53.125C64.0625 50.5625 66.1875 48.4375 68.75 48.4375C71.3125 48.4375 73.4375 50.5625 73.4375 53.125V64.0625H84.375C86.9375 64.0625 89.0625 66.1875 89.0625 68.75C89.0625 71.3125 86.9375 73.4375 84.375 73.4375Z" fill="url(#paint0_linear_5282_10455)"/>
<path d="M137.438 118.437C135.376 114.625 131.001 112.5 125.126 112.5C120.688 112.5 116.876 114.312 114.626 117.437C112.376 120.562 111.876 124.75 113.251 128.937C115.938 137.062 120.626 138.875 123.188 139.187C123.563 139.25 123.938 139.25 124.376 139.25C127.126 139.25 131.376 138.062 135.501 131.875C138.813 127.062 139.438 122.25 137.438 118.437Z" fill="url(#paint1_linear_5282_10455)"/>
<defs>
<linearGradient id="paint0_linear_5282_10455" x1="68.8125" y1="12.5" x2="68.8125" y2="125.125" gradientUnits="userSpaceOnUse">
<stop stop-color="#DBE7FF"/>
<stop offset="1" stop-color="#71A2FF"/>
</linearGradient>
<linearGradient id="paint1_linear_5282_10455" x1="125.533" y1="112.5" x2="125.533" y2="139.25" gradientUnits="userSpaceOnUse">
<stop stop-color="#DBE7FF"/>
<stop offset="1" stop-color="#71A2FF"/>
</linearGradient>
</defs>
</svg>
