<svg width="54" height="53" viewBox="0 0 54 53" fill="none" xmlns="http://www.w3.org/2000/svg">
<path d="M27.3598 24.0044C27.1348 23.9823 26.8648 23.9823 26.6173 24.0044C21.2623 23.8278 17.0098 19.5215 17.0098 14.2215C17.0098 8.81109 21.4648 4.4165 26.9998 4.4165C32.5123 4.4165 36.9898 8.81109 36.9898 14.2215C36.9673 19.5215 32.7148 23.8278 27.3598 24.0044Z" stroke="#4A4A4A" stroke-width="1.5" stroke-linecap="round" stroke-linejoin="round"/>
<path d="M16.1101 32.1535C10.6651 35.731 10.6651 41.561 16.1101 45.1164C22.2976 49.1797 32.4451 49.1797 38.6326 45.1164C44.0776 41.5389 44.0776 35.7089 38.6326 32.1535C32.4676 28.1122 22.3201 28.1122 16.1101 32.1535Z" stroke="#4A4A4A" stroke-width="1.5" stroke-linecap="round" stroke-linejoin="round"/>
</svg>
