<svg width="60" height="60" viewBox="0 0 60 60" fill="none" xmlns="http://www.w3.org/2000/svg">
<path d="M50 16.875C53.797 16.875 56.875 13.797 56.875 10C56.875 6.20304 53.797 3.125 50 3.125C46.203 3.125 43.125 6.20304 43.125 10C43.125 13.797 46.203 16.875 50 16.875Z" fill="url(#paint0_linear_5435_47702)"/>
<path d="M47.6 20.375C43.675 19.525 40.475 16.325 39.625 12.4C39.3 10.875 39.275 9.4 39.55 8C39.875 6.45 38.725 5 37.125 5H17.5C10.6 5 5 10.6 5 17.5V34.875C5 41.775 10.6 47.375 17.5 47.375H21.25C21.95 47.375 22.85 47.825 23.25 48.375L27 53.35C28.65 55.55 31.35 55.55 33 53.35L36.75 48.375C37.225 47.75 37.95 47.375 38.75 47.375H42.525C49.425 47.375 55 41.8 55 34.9V22.875C55 21.3 53.55 20.15 52 20.45C50.6 20.7 49.125 20.7 47.6 20.375ZM20 30C18.6 30 17.5 28.875 17.5 27.5C17.5 26.125 18.6 25 20 25C21.375 25 22.5 26.125 22.5 27.5C22.5 28.875 21.4 30 20 30ZM30 30C28.6 30 27.5 28.875 27.5 27.5C27.5 26.125 28.6 25 30 25C31.375 25 32.5 26.125 32.5 27.5C32.5 28.875 31.4 30 30 30ZM40 30C38.6 30 37.5 28.875 37.5 27.5C37.5 26.125 38.6 25 40 25C41.375 25 42.5 26.125 42.5 27.5C42.5 28.875 41.4 30 40 30Z" fill="url(#paint1_linear_5435_47702)"/>
<defs>
<linearGradient id="paint0_linear_5435_47702" x1="50" y1="3.125" x2="50" y2="16.875" gradientUnits="userSpaceOnUse">
<stop stop-color="#B0CCFF"/>
<stop offset="1" stop-color="#367CFF"/>
</linearGradient>
<linearGradient id="paint1_linear_5435_47702" x1="30" y1="5" x2="30" y2="55" gradientUnits="userSpaceOnUse">
<stop stop-color="#B0CCFF"/>
<stop offset="1" stop-color="#367CFF"/>
</linearGradient>
</defs>
</svg>
