<svg width="60" height="60" viewBox="0 0 60 60" fill="none" xmlns="http://www.w3.org/2000/svg">
<path d="M10.425 38.25L21.75 49.575C26.4 54.225 33.95 54.225 38.625 49.575L49.6 38.6C54.25 33.95 54.25 26.4 49.6 21.725L38.25 10.425C35.875 8.05 32.6 6.775 29.25 6.95L16.75 7.55C11.75 7.775 7.77498 11.75 7.52498 16.725L6.92498 29.225C6.77498 32.6 8.04998 35.875 10.425 38.25Z" stroke="#2F3036" stroke-width="1.5" stroke-linecap="round" stroke-linejoin="round"/>
<path d="M23.75 30C27.2018 30 30 27.2018 30 23.75C30 20.2982 27.2018 17.5 23.75 17.5C20.2982 17.5 17.5 20.2982 17.5 23.75C17.5 27.2018 20.2982 30 23.75 30Z" stroke="#2F3036" stroke-width="1.5" stroke-linecap="round"/>
</svg>
