<svg width="60" height="60" viewBox="0 0 60 60" fill="none" xmlns="http://www.w3.org/2000/svg">
<path d="M49.5742 21.7495L38.2492 10.4245C35.8742 8.04951 32.5992 6.77451 29.2492 6.94951L16.7492 7.54951C11.7492 7.77451 7.77421 11.7495 7.52421 16.7245L6.92421 29.2245C6.77421 32.5745 8.02421 35.8495 10.3992 38.2245L21.7242 49.5495C26.3742 54.1995 33.9242 54.1995 38.5992 49.5495L49.5742 38.5745C54.2492 33.9495 54.2492 26.3995 49.5742 21.7495ZM23.7492 30.9495C19.7742 30.9495 16.5492 27.7245 16.5492 23.7495C16.5492 19.7745 19.7742 16.5495 23.7492 16.5495C27.7242 16.5495 30.9492 19.7745 30.9492 23.7495C30.9492 27.7245 27.7242 30.9495 23.7492 30.9495Z" fill="#FF6B6B"/>
</svg>
