<svg width="100" height="100" viewBox="0 0 100 100" fill="none" xmlns="http://www.w3.org/2000/svg">
<path d="M67.459 9.7085H32.5423C17.3757 9.7085 8.33398 18.7918 8.33398 33.9585V68.8335C8.33398 84.0002 17.3757 93.0418 32.5423 93.0418H67.4173C82.584 93.0418 91.6256 84.0002 91.6256 68.8335V33.9585C91.6673 18.7918 82.6257 9.7085 67.459 9.7085ZM48.209 71.3335C48.209 72.5835 47.584 73.7085 46.5006 74.3752C45.9173 74.7502 45.2923 74.9168 44.6256 74.9168C44.084 74.9168 43.5423 74.7918 43.0006 74.5418L28.4173 67.2502C26.334 66.1668 25.0007 64.0418 25.0007 61.6668V47.8752C25.0007 46.6252 25.6256 45.5002 26.709 44.8335C27.7923 44.1668 29.084 44.1252 30.209 44.6668L44.7923 51.9585C46.9173 53.0418 48.2506 55.1668 48.2506 57.5418V71.3335H48.209ZM47.334 49.0418L31.6673 40.5835C30.5423 39.9585 29.834 38.7502 29.834 37.3752C29.834 36.0418 30.5423 34.7918 31.6673 34.1668L47.334 25.7085C49.0006 24.8335 50.959 24.8335 52.6256 25.7085L68.2923 34.1668C69.4173 34.7918 70.1256 36.0002 70.1256 37.3752C70.1256 38.7502 69.4173 39.9585 68.2923 40.5835L52.6256 49.0418C51.7923 49.5002 50.8756 49.7085 49.959 49.7085C49.0423 49.7085 48.1673 49.5002 47.334 49.0418ZM75.0006 61.6668C75.0006 64.0418 73.6673 66.2085 71.5423 67.2502L56.959 74.5418C56.459 74.7918 55.9173 74.9168 55.334 74.9168C54.6673 74.9168 54.0423 74.7502 53.459 74.3752C52.3756 73.7085 51.7506 72.5835 51.7506 71.3335V57.5418C51.7506 55.1668 53.084 53.0002 55.209 51.9585L69.7923 44.6668C70.9173 44.1252 72.209 44.1668 73.2923 44.8335C74.3756 45.5002 75.0006 46.6252 75.0006 47.8752V61.6668Z" fill="url(#paint0_linear_5295_50173)"/>
<defs>
<linearGradient id="paint0_linear_5295_50173" x1="49.9799" y1="9.7085" x2="49.9799" y2="93.0418" gradientUnits="userSpaceOnUse">
<stop stop-color="#3280FF"/>
<stop offset="1" stop-color="#ACCCFF"/>
</linearGradient>
</defs>
</svg>
